<svg width="98" height="25" viewBox="0 0 98 25" fill="none" xmlns="http://www.w3.org/2000/svg">
<path d="M7.01562 24H2.0625L2.09375 20.3438H7.01562C8.24479 20.3438 9.28125 20.0677 10.125 19.5156C10.9688 18.9531 11.6042 18.1354 12.0312 17.0625C12.4688 15.9896 12.6875 14.6927 12.6875 13.1719V12.0625C12.6875 10.8958 12.5625 9.86979 12.3125 8.98438C12.0729 8.09896 11.7135 7.35417 11.2344 6.75C10.7552 6.14583 10.1667 5.69271 9.46875 5.39062C8.77083 5.07812 7.96875 4.92188 7.0625 4.92188H1.96875V1.25H7.0625C8.58333 1.25 9.97396 1.51042 11.2344 2.03125C12.5052 2.54167 13.6042 3.27604 14.5312 4.23438C15.4583 5.19271 16.1719 6.33854 16.6719 7.67188C17.1823 8.99479 17.4375 10.4688 17.4375 12.0938V13.1719C17.4375 14.7865 17.1823 16.2604 16.6719 17.5938C16.1719 18.9271 15.4583 20.0729 14.5312 21.0312C13.6146 21.9792 12.5156 22.7135 11.2344 23.2344C9.96354 23.7448 8.55729 24 7.01562 24ZM4.71875 1.25V24H0.03125V1.25H4.71875ZM25.3125 7.09375V24H20.7969V7.09375H25.3125ZM20.5156 2.6875C20.5156 2.03125 20.7448 1.48958 21.2031 1.0625C21.6615 0.635417 22.276 0.421875 23.0469 0.421875C23.8073 0.421875 24.4167 0.635417 24.875 1.0625C25.3438 1.48958 25.5781 2.03125 25.5781 2.6875C25.5781 3.34375 25.3438 3.88542 24.875 4.3125C24.4167 4.73958 23.8073 4.95312 23.0469 4.95312C22.276 4.95312 21.6615 4.73958 21.2031 4.3125C20.7448 3.88542 20.5156 3.34375 20.5156 2.6875ZM33.7812 0V24H29.2656V0H33.7812ZM43.25 20.7188L47 7.09375H51.7031L46 24H43.1562L43.25 20.7188ZM40.6719 7.09375L44.4375 20.7344L44.5156 24H41.6562L35.9531 7.09375H40.6719ZM62.5938 20.1875V12.6562C62.5938 12.1146 62.5052 11.651 62.3281 11.2656C62.151 10.8698 61.875 10.5625 61.5 10.3438C61.1354 10.125 60.6615 10.0156 60.0781 10.0156C59.5781 10.0156 59.1458 10.1042 58.7812 10.2812C58.4167 10.4479 58.1354 10.6927 57.9375 11.0156C57.7396 11.3281 57.6406 11.6979 57.6406 12.125H53.1406C53.1406 11.4062 53.3073 10.724 53.6406 10.0781C53.974 9.43229 54.4583 8.86458 55.0938 8.375C55.7292 7.875 56.4844 7.48438 57.3594 7.20312C58.2448 6.92188 59.2344 6.78125 60.3281 6.78125C61.6406 6.78125 62.8073 7 63.8281 7.4375C64.849 7.875 65.651 8.53125 66.2344 9.40625C66.8281 10.2812 67.125 11.375 67.125 12.6875V19.9219C67.125 20.849 67.1823 21.6094 67.2969 22.2031C67.4115 22.7865 67.5781 23.2969 67.7969 23.7344V24H63.25C63.0312 23.5417 62.8646 22.9688 62.75 22.2812C62.6458 21.5833 62.5938 20.8854 62.5938 20.1875ZM63.1875 13.7031L63.2188 16.25H60.7031C60.1094 16.25 59.5938 16.3177 59.1562 16.4531C58.7188 16.5885 58.3594 16.7812 58.0781 17.0312C57.7969 17.2708 57.5885 17.5521 57.4531 17.875C57.3281 18.1979 57.2656 18.5521 57.2656 18.9375C57.2656 19.3229 57.3542 19.6719 57.5312 19.9844C57.7083 20.2865 57.9635 20.526 58.2969 20.7031C58.6302 20.8698 59.0208 20.9531 59.4688 20.9531C60.1458 20.9531 60.7344 20.8177 61.2344 20.5469C61.7344 20.276 62.1198 19.9427 62.3906 19.5469C62.6719 19.151 62.8177 18.776 62.8281 18.4219L64.0156 20.3281C63.849 20.7552 63.6198 21.1979 63.3281 21.6562C63.0469 22.1146 62.6875 22.5469 62.25 22.9531C61.8125 23.349 61.2865 23.6771 60.6719 23.9375C60.0573 24.1875 59.3281 24.3125 58.4844 24.3125C57.4115 24.3125 56.4375 24.099 55.5625 23.6719C54.6979 23.2344 54.0104 22.6354 53.5 21.875C53 21.1042 52.75 20.2292 52.75 19.25C52.75 18.3646 52.9167 17.5781 53.25 16.8906C53.5833 16.2031 54.0729 15.625 54.7188 15.1562C55.375 14.6771 56.1927 14.3177 57.1719 14.0781C58.151 13.8281 59.2865 13.7031 60.5781 13.7031H63.1875ZM75 10.7031V24H70.5V7.09375H74.7188L75 10.7031ZM74.3438 14.9531H73.125C73.125 13.7031 73.2865 12.5781 73.6094 11.5781C73.9323 10.5677 74.3854 9.70833 74.9688 9C75.5521 8.28125 76.2448 7.73438 77.0469 7.35938C77.8594 6.97396 78.7656 6.78125 79.7656 6.78125C80.5573 6.78125 81.2812 6.89583 81.9375 7.125C82.5938 7.35417 83.1562 7.71875 83.625 8.21875C84.1042 8.71875 84.4688 9.38021 84.7188 10.2031C84.9792 11.026 85.1094 12.0312 85.1094 13.2188V24H80.5781V13.2031C80.5781 12.4531 80.474 11.8698 80.2656 11.4531C80.0573 11.0365 79.75 10.7448 79.3438 10.5781C78.9479 10.401 78.4583 10.3125 77.875 10.3125C77.2708 10.3125 76.7448 10.4323 76.2969 10.6719C75.8594 10.9115 75.4948 11.2448 75.2031 11.6719C74.9219 12.0885 74.7083 12.5781 74.5625 13.1406C74.4167 13.7031 74.3438 14.3073 74.3438 14.9531ZM96.8125 7.09375V10.2812H86.9688V7.09375H96.8125ZM89.4062 2.92188H93.9062V18.9062C93.9062 19.3958 93.9688 19.7708 94.0938 20.0312C94.2292 20.2917 94.4271 20.474 94.6875 20.5781C94.9479 20.6719 95.276 20.7188 95.6719 20.7188C95.9531 20.7188 96.2031 20.7083 96.4219 20.6875C96.651 20.6562 96.8438 20.625 97 20.5938L97.0156 23.9062C96.6302 24.0312 96.2135 24.1302 95.7656 24.2031C95.3177 24.276 94.8229 24.3125 94.2812 24.3125C93.2917 24.3125 92.4271 24.151 91.6875 23.8281C90.9583 23.4948 90.3958 22.9635 90 22.2344C89.6042 21.5052 89.4062 20.5469 89.4062 19.3594V2.92188Z" fill="white"/>
</svg>
